<?xml version="1.0" encoding="iso-8859-1"?>
<!-- Generator: Adobe Illustrator 16.0.3, SVG Export Plug-In . SVG Version: 6.00 Build 0)  -->
<!DOCTYPE svg PUBLIC "-//W3C//DTD SVG 1.1//EN" "http://www.w3.org/Graphics/SVG/1.1/DTD/svg11.dtd">
<svg version="1.1" xmlns="http://www.w3.org/2000/svg" xmlns:xlink="http://www.w3.org/1999/xlink" x="0px" y="0px" width="16px"
	 height="16px" viewBox="0 0 16 16" style="enable-background:new 0 0 16 16;" xml:space="preserve">
<g id="lyHalo">
	<rect id="gBg" style="opacity:0;fill:#F6F6F6;" width="16" height="16"/>
	<path id="gHalo" style="fill:#F6F6F6;" d="M14,4.249C13.557,2.076,11.214,0,9.732,0H7.164C6.79,0,6.596,0.152,6.596,0.152
		C4.498,0.793,2.959,2.725,2.938,4.878C2.891,5.341,2.834,7.16,4.637,8.659c0.514,0.466,1.219,1.97,1.301,2.368L5.956,11.1L6,11.214
		v1.821v1.401L7.514,16h1.98L11,14.433v-1.397v-1v-0.827l0.038-0.115l0.013-0.066c0.08-0.382,0.8-1.894,1.271-2.323
		C13.419,7.791,13.844,6.79,14,6.04V4.249z"/>
</g>
<g id="lyBg">
	<g id="gBase">
		<rect x="7.01" y="12.035" style="fill:#68217A;" width="3" height="0.965"/>
		<polygon style="fill:#68217A;" points="7.939,15.021 9.064,15.021 9.996,14.035 6.994,14.035 		"/>
		<g>
			<path style="fill:#68217A;" d="M13.074,5.05l-0.002-0.014l0.008-0.077c0-2.178-1.855-3.979-4.139-4.016
				C8.889,0.853,7.598,0.965,7.598,0.965v0.012c-2.072,0.255-3.67,1.987-3.66,3.971c-0.01,0.066-0.23,1.642,1.371,2.975
				c0.721,0.653,1.502,2.388,1.609,2.904L6.994,11h3.002l0.074-0.176c0.107-0.516,0.906-2.248,1.613-2.889
				C13.264,6.62,13.084,5.113,13.074,5.05z M10.039,6.003L9.563,9H9V6.056L9.017,6c1.082,0,0.928-1,0.928-1H7v0.072
				C7.004,5.295,7.088,6,8,6v3H7.438L7.289,8.289L6.926,6.003C6.275,6.003,6.067,5.572,6,5.274c0-0.121,0-0.244,0-0.4
				C6,4.077,6.891,4,6.891,4H10c0,0,1,0.125,1,1C11,5,11.028,6.003,10.039,6.003z"/>
		</g>
	</g>
</g>
<g id="lyFg">
	<g id="gFg">
		<path style="fill:#F0EFF1;" d="M11,5c0-0.875-1-1-1-1H6.891C6.891,4,6,4.077,6,4.875c0,0.156,0,0.279,0,0.4
			c0.067,0.297,0.275,0.729,0.926,0.729l0.363,2.286L7.438,9H8V6C7.088,6,7.004,5.295,7,5.072V5h2.944c0,0,0.154,1-0.928,1L9,6.056
			V9h0.563l0.477-2.997C11.028,6.003,11,5,11,5z"/>
	</g>
</g>
</svg>
